# xmcd CD database file
#
# Track frame offsets:
#	150
#	17610
#	36010
#	60810
#	82032
#	82803
#	101883
#	124914
#	147267
#	168834
#	184542
#	202747
#	222745
#	243574
#
# Disc length: 3568 seconds
#
# Revision: 2
# Processed by: cddbd v1.5.2PL0 Copyright (c) Steve Scherf et al.
# Submitted via: CDex 1.70beta2
#
DISCID=b50dee0e
DTITLE=Nasty - acharu
DYEAR=2010
DGENRE=Hip-Hop
TTITLE0=Rain to the Rainbow-Produced by Takacha
TTITLE1=さよならMy Boo-Produced by acharu
TTITLE2=忘却の彼方 feat.なのるなもない(降神)-Produced by acharu
TTITLE3=ICE RAIN feat.NIPPS&B.D(THE SEXORCIST)-Produced by DJ GRADIS NICE A.K.A. K-MOON X(THE SEXORCIST)
TTITLE4=Skit feat.NIPPS
TTITLE5=TENKUUuuu!!!-Produced byY.P.J
TTITLE6=City Light feat.D.O(練ﾏｻﾞﾌｧｯｶｰ)-Produced byYOUICHI(NIGHT CAMP CLICK)
TTITLE7=PAIN-Produced by Takacha
TTITLE8=Voice feat.BRON-K(SD JUNKSTA)ZIGHT(NIGHT CAMP CLICK)-Produced byY.P.J
TTITLE9=Skit(Sky walking)-Produced by acharu
TTITLE10=FREE-Produced by acharu
TTITLE11=Fly away-Produced by acharu
TTITLE12=Eazy come Eazy go feat.Takacha-Produced bySKYBEATZ
TTITLE13=さよならMy Boo[Takacha remix]feat.ﾏｲｸｱｷﾗ(四街道ﾈｲﾁｬｰ)-Produced by acharu,Remixed byTakacha
EXTD=YEAR: 2010
EXTT0=
EXTT1=
EXTT2=
EXTT3=
EXTT4=
EXTT5=
EXTT6=
EXTT7=
EXTT8=
EXTT9=
EXTT10=
EXTT11=
EXTT12=
EXTT13=
PLAYORDER=
